<?xml version="1.0" encoding="UTF-8" standalone="no"?>
<!-- Created with Inkscape (http://www.inkscape.org/) -->

<svg
   version="1.1"
   id="svg1"
   width="794"
   height="794"
   viewBox="0 0 794 794"
   sodipodi:docname="turbo_the_snail.svg"
   inkscape:version="1.4.2 (f4327f4, 2025-05-13)"
   xmlns:inkscape="http://www.inkscape.org/namespaces/inkscape"
   xmlns:sodipodi="http://sodipodi.sourceforge.net/DTD/sodipodi-0.dtd"
   xmlns="http://www.w3.org/2000/svg"
   xmlns:svg="http://www.w3.org/2000/svg">
  <defs
     id="defs1" />
  <sodipodi:namedview
     id="namedview1"
     pagecolor="#ffffff"
     bordercolor="#000000"
     borderopacity="0.25"
     inkscape:showpageshadow="2"
     inkscape:pageopacity="0.0"
     inkscape:pagecheckerboard="0"
     inkscape:deskcolor="#d1d1d1"
     showgrid="false"
     inkscape:zoom="0.5358396"
     inkscape:cx="396.5739"
     inkscape:cy="560.80215"
     inkscape:window-width="1920"
     inkscape:window-height="1107"
     inkscape:window-x="-9"
     inkscape:window-y="-9"
     inkscape:window-maximized="1"
     inkscape:current-layer="svg1" />
  <g
     inkscape:groupmode="layer"
     inkscape:label="Image"
     id="g1">
    <rect
       id="background_rect"
       width="100%"
       height="100%"
       fill="#ffffff"
       rx="50"
       ry="50"/>
    <path
       style="fill:#000000"
       d="m 305.33115,651.09219 c -34.57017,-4.68578 -55.02788,-10.4037 -78.5,-21.94071 -44.84294,-22.0412 -79.37176,-58.38462 -105.02449,-110.5439 -27.150155,-55.20395 -32.555441,-99.71789 -16.06365,-132.28832 4.10699,-8.11108 7.46401,-12.80337 14.92719,-20.86449 6.73648,-7.2762 6.77535,-7.59119 3.14229,-25.45967 -8.81691,-43.36416 -17.89687,-61.43747 -36.788302,-73.22568 -2.85617,-1.78225 -11.490007,-6.34494 -19.186303,-10.13932 -12.815629,-6.31828 -14.714161,-7.61942 -22.559296,-15.4607 -13.560876,-13.55421 -19.334075,-26.71118 -19.334075,-44.06182 0,-28.62509 19.30513,-52.02401 51.886637,-62.88956 25.024849,-8.34549 49.980829,-5.32812 71.999999,8.70536 25.78672,16.43465 37.63357,45.57244 29.14538,71.6842 -3.46448,10.65758 -8.54934,18.11898 -22.15615,32.51139 -14.22611,15.04746 -16.84582,19.90141 -17.33422,32.11779 -0.25902,6.47892 0.20676,10.83966 1.86923,17.5 3.60448,14.44061 14.14941,41.64475 17.06407,44.02243 1.07693,0.87852 3.41571,0.71475 9.86269,-0.69065 16.96536,-3.69834 31.75049,-3.49825 48.99104,0.66298 6.01704,1.45229 7.21806,1.49102 8.69876,0.28049 2.14053,-1.74996 15.50186,-29.44199 21.76846,-45.11624 10.98561,-27.47759 10.05995,-38.13571 -5.22741,-60.1887 -20.1603,-29.08252 -17.71557,-61.95457 6.32894,-85.09949 13.7986,-13.28234 30.94262,-20.19478 52.6206,-21.21654 18.63691,-0.87843 33.44685,2.16501 48.11378,9.88736 9.4113,4.95519 22.36198,18.33102 26.94464,27.82918 6.9755,14.45764 8.57209,28.79109 4.83475,43.40399 -6.43447,25.15851 -25.68217,42.44214 -57.4795,51.61415 -24.98846,7.20797 -36.9989,17.32681 -48.25828,40.65772 -6.03842,12.51242 -18.2254,48.3903 -18.45858,54.34119 -0.16643,4.2473 0.0751,4.66212 8.50343,14.60404 8.09521,9.54898 14.9632,24.23708 24.714,52.85414 13.06202,38.33493 17.91424,48.18419 36.45846,74.00501 10.97321,15.27901 16.41374,20.58275 31.33528,30.54743 25.7124,17.17087 61.32889,31.59519 103.60312,41.95823 9.14836,2.24262 21.00381,5.67046 26.34545,7.61743 32.72277,11.9271 57.42939,16.98448 88.21206,18.05679 33.33922,1.16136 59.1811,-2.91326 93.44023,-14.73323 13.96097,-4.81676 15.73612,-5.18899 27.08312,-5.67904 29.66271,-1.28104 57.49743,8.82685 57.47153,20.87018 -0.007,3.04222 -3.70129,9.11019 -7.22174,11.86044 -4.79163,3.74333 -16.98283,8.78465 -28.79928,11.90911 -31.44931,8.31571 -80.45114,13.08228 -154.97386,15.07484 -59.76153,1.59787 -69.98755,2.33395 -127,9.1416 -42.78643,5.10896 -62.70156,6.68687 -92.5,7.32889 -20.30794,0.43755 -26.23062,0.21475 -38.5,-1.4483 z M 195.39965,442.52505 c 15.33572,-4.46824 33.72415,-19.74344 30.31483,-25.18242 -2.01511,-3.21476 -4.71102,-2.43719 -11.18034,3.22468 -10.38065,9.08501 -18.19345,12.89021 -30.03016,14.6261 -13.7047,2.00983 -26.74806,-2.51735 -38.95594,-13.52109 -7.40627,-6.67574 -9.99052,-7.74735 -12.21614,-5.06564 -4.4435,5.35409 14.60311,21.7496 30.11158,25.92035 7.44177,2.00134 25.08419,2.00025 31.95617,-0.002 z M 119.31598,247.54962 c 17.189,-4.05123 31.73904,-15.33586 38.71582,-30.02697 3.35094,-7.05613 3.78769,-8.89904 4.12444,-17.40345 0.30947,-7.81567 -0.0116,-10.66097 -1.8009,-15.95766 -4.49908,-13.31844 -13.75002,-23.40561 -27.52419,-30.01221 -10.92847,-5.2417 -17.04156,-6.55145 -30,-6.42762 -13.985721,0.13365 -23.969722,3.13674 -35.036491,10.53865 -8.637161,5.77688 -14.366406,12.41194 -18.864649,21.84722 -2.90869,6.10111 -3.098859,7.20572 -3.098859,18 0,11.23466 0.08552,11.67493 3.706607,19.08165 6.726867,13.75942 22.436046,26.04636 38.793393,30.34227 7.283721,1.91291 22.906639,1.92205 30.984829,0.0181 z m -19.30726,-20.3447 C 89.086541,223.59248 81.101606,215.954 77.773709,205.93464 c -4.455158,-13.41323 2.674172,-27.82082 17.339055,-35.04032 6.267766,-3.08561 7.321466,-3.28674 17.218386,-3.28674 9.89692,0 10.95062,0.20113 17.21839,3.28674 24.45739,12.04034 23.34974,43.36532 -1.94284,54.94465 -7.5578,3.46007 -19.482,4.05026 -27.59798,1.36595 z m 32.57243,-36.05138 c 5.08906,-5.69516 2.90856,-13.34481 -4.25,-14.90986 -10.80553,-2.36239 -18.89631,6.64082 -12.86188,14.31235 2.80192,3.56208 5.47808,4.62126 10.36188,4.10108 2.87852,-0.3066 4.77102,-1.28889 6.75,-3.50357 z m 187.25,55.45469 c 28.51954,-5.96721 47.89002,-30.63099 44.37455,-56.50065 -2.70391,-19.89757 -21.14536,-37.80882 -43.87455,-42.61313 -14.80745,-3.12987 -34.14121,-0.10472 -47,7.35411 -7.36352,4.27125 -16.48403,13.74224 -20.30848,21.08888 -10.15726,19.51173 -6.29568,40.09089 10.42834,55.57477 14.82109,13.72206 35.93165,19.3745 56.38014,15.09602 z m -17.63684,-20.01028 c -15.32938,-4.90907 -25.86827,-20.91362 -22.89642,-34.7709 2.27135,-10.59093 9.3607,-18.35254 20.88072,-22.86076 4.25695,-1.66591 7.75115,-2.21205 14.15254,-2.21205 10.69522,0 17.82992,2.59673 25.10407,9.13681 6.86724,6.17425 9.87639,12.63851 9.87639,21.21653 0,11.99887 -6.5864,21.49598 -18.96316,27.34349 -5.37277,2.53842 -7.94097,3.11152 -15,3.3473 -5.52042,0.18438 -10.14881,-0.23799 -13.15414,-1.20042 z m 32.06011,-35.07927 c 5.03611,-4.2376 4.06856,-11.81261 -1.90325,-14.90075 -3.97226,-2.05413 -7.88304,-1.89124 -11.79041,0.49109 -6.05877,3.69404 -6.70486,9.80007 -1.54314,14.58379 3.7498,3.4752 10.99827,3.39236 15.2368,-0.17413 z M 557.33115,589.6565 c -39.71313,-5.72507 -72.21361,-21.63439 -99.05462,-48.48828 -51.31406,-51.33869 -63.01421,-127.74838 -29.94501,-195.56064 27.55133,-56.49719 74.24105,-88.70982 128.49963,-88.65571 22.16028,0.0221 39.36977,4.02192 58.19601,13.52589 36.35871,18.35479 59.86787,51.95049 65.40977,93.47363 1.57491,11.8001 0.56676,37.08646 -1.93989,48.65619 -7.71261,35.59852 -27.88473,62.53901 -57.66589,77.01456 -22.7806,11.07283 -45.52423,13.11976 -66.50101,5.9851 -11.02656,-3.75038 -17.7614,-8.08912 -27.03308,-17.41535 -6.74856,-6.78827 -9.41773,-10.37369 -12.75749,-17.13676 -11.78263,-23.86005 -12.78315,-51.92766 -2.57572,-72.25687 7.0821,-14.10478 17.90264,-25.31218 30.57312,-31.66621 9.39578,-4.71181 17.077,-6.41607 26.03048,-5.77545 16.54835,1.18403 31.58025,14.90476 35.76008,32.6409 4.98611,21.15734 -11.10269,46.75153 -27.45958,43.68296 -4.09685,-0.76857 -10.35685,-5.92762 -13.64157,-11.2424 -2.78132,-4.50027 -6.47977,-6.01644 -9.03508,-3.70391 -6.38163,5.77529 4.70058,24.03064 16.61291,27.36589 14.51572,4.06415 33.46018,-6.04752 42.19275,-22.52052 11.17561,-21.08154 7.12933,-50.32035 -9.22308,-66.6469 -10.85322,-10.83605 -22.73089,-15.30051 -40.44273,-15.20121 -10.21869,0.0573 -12.55714,0.42286 -20.98802,3.28101 -28.32502,9.60245 -46.95034,31.33404 -53.58527,62.52207 -9.41006,44.23272 11.10984,86.04237 52.07329,106.1002 55.06101,26.96074 115.74357,3.10472 145.05991,-57.02711 14.05655,-28.83191 18.3324,-59.30289 12.83975,-91.5 -9.41572,-55.1936 -47.63035,-102.06293 -96.14193,-117.91578 -15.95443,-5.21366 -24.85617,-6.51004 -44.25773,-6.44531 -19.33655,0.0645 -30.44903,1.81109 -47.5,7.46576 -62.59681,20.75918 -108.9059,83.88732 -116.45564,158.75128 -4.88264,48.41677 8.44861,95.81783 38.5006,136.89405 2.99401,4.09233 4.06505,6.25 3.10243,6.25 -2.25427,0 -16.97423,-6.49618 -28.43911,-12.55068 -35.69674,-18.85114 -63.11142,-45.48214 -78.1843,-75.94932 -6.71634,-13.5759 -9.22472,-20.7879 -12.05398,-34.65708 -6.79805,-33.3245 4.16343,-90.39307 25.94086,-135.05547 26.28975,-53.9165 69.7282,-96.5428 120.46156,-118.20934 27.96146,-11.94142 51.47033,-16.81672 81.12758,-16.82434 40.13294,-0.0103 76.32391,10.92778 110.8443,33.50072 44.14209,28.8646 76.41091,70.83125 93.22759,121.24551 8.008,24.00697 11.272,42.90135 12.0925,70 2.49348,82.35205 -35.54669,158.6867 -96.63946,193.92497 -15.27907,8.81297 -31.58455,14.94993 -49.57943,18.66044 -13.015,2.68366 -43.58009,3.46235 -57.4455,1.46351 z"
       id="path1"
       sodipodi:nodetypes="ssssssssssssssssssssssssssssssssssssssscsssssssssssssssssscsssssssssssssssssssssssssssssssssssssssssssssssssssssssssssssssssssssssssssssssssssssss" />
  </g>
</svg>
