<svg width="170mm" height="85mm" version="1.1" viewBox="0 0 170 85" xml:space="preserve" xmlns="http://www.w3.org/2000/svg"><path d="m149.63 3.1247c-6.9092 1.1515-11.906 6.3162-12.413 13.391-0.56475 7.8696 7.6795 15.044 15.324 13.964 6.3589-0.89789 11.762-5.8341 12.413-12.377 0.81524-8.1903-6.9044-16.382-15.324-14.978m0.79375 5.7767c4.4952-0.65556 9.1552 3.9276 8.7092 8.4079-0.38887 3.9064-3.6202 6.7562-7.3863 7.3054-5.1372 0.74917-9.4667-4.8903-8.3564-9.6867 0.74558-3.2209 3.875-5.566 7.0335-6.0266z" fill="#c4d0d7"/><path d="m145.74 9.5021c-6.9092 1.1515-11.906 6.3162-12.413 13.391-0.56416 7.8616 7.6816 15.043 15.324 13.964 6.3589-0.89789 11.762-5.8341 12.413-12.377 0.81524-8.1903-6.9045-16.382-15.324-14.978m0.79375 5.7767c4.5204-0.65925 9.1577 3.9019 8.7092 8.4079-0.38887 3.9064-3.6202 6.7562-7.3863 7.3054-5.1372 0.74917-9.4667-4.8903-8.3564-9.6867 0.74557-3.2209 3.875-5.566 7.0335-6.0266z" fill="#86a0ae"/><path d="m29.417 54.404c-5.1095 0.85158-9.4679 4.4167-10.48 9.6867-1.4538 7.5666 5.2975 15.334 13.126 14.229 5.1791-0.7313 9.7387-4.6909 10.525-9.9954 1.0984-7.4144-5.3208-15.228-13.17-13.92m-18.785 0.16169v10.848c0 1.812 0.22721 4.0926-0.39688 5.8208-1.1786 3.2638-4.6737 2.0655-6.7469 0.79375v6.0854c3.2444 0.16359 6.7109 0.68815 9.503-1.5067 2.1786-1.7126 2.6679-4.8951 2.6679-7.4892v-14.552h-5.0271m35.454 0v23.812c4.1359 0 10.093 1.0988 13.758-1.1612 4.715-2.9076 2.8961-10.003-1.8521-11.539 3.5578-2.612 3.585-8.5675-0.79375-10.473-3.2102-1.397-7.68-0.63942-11.112-0.63942m34.925 0-9.2604 23.812h5.5562l1.6683-4.4097 2.0358-0.35277 6.5484 0.19109 2.0432 4.3803 5.4313 0.19109-6.8792-17.198-2.7267-6.4235-4.4171-0.19109m16.404 0v23.812h5.0271v-8.7312c2.4417 0 5.2212 0.40958 7.4083-0.89664 4.4324-2.6471 4.5208-9.6859 0.52917-12.751-3.2865-2.524-9.065-1.4332-12.965-1.4332m18.521 0v23.812h5.0271v-8.7312c2.4418 0 5.2212 0.40958 7.4083-0.89664 4.4324-2.6471 4.5208-9.6859 0.52917-12.751-3.2865-2.524-9.0649-1.4332-12.965-1.4332m18.521 0v23.812h13.494v-4.7625h-8.4667v-19.05h-5.0271m8.4667 0c2.3125 4.403 6.7513 8.071 8.5622 12.7 1.1418 2.9186 0.16905 7.9728 0.16905 11.112h5.0271v-7.6729l0.16905-3.7042 8.2976-12.435-5.7988 0.0882-1.5581 2.0285-3.491 6.0854-5.3505-8.011-6.0266-0.19109m-91.81 9.7896v-5.8208c1.16 0 2.4548-0.14861 3.4322 0.61001 1.5187 1.1787 1.5071 3.9302-0.26458 4.8728-0.94597 0.50327-2.1341 0.33807-3.1677 0.33807m51.329 1.3229v-7.1438c1.444 0 3.2662-0.30718 4.4979 0.61001 1.8658 1.3894 1.9443 5.057-0.26458 6.1957-1.2121 0.62485-2.9101 0.33808-4.2333 0.33808m18.521 0v-7.1438c1.444 0 3.2662-0.30718 4.4979 0.61001 1.8659 1.3894 1.9443 5.057-0.26459 6.1957-1.2121 0.62484-2.9101 0.33808-4.2333 0.33808m-90.752-6.2912c4.3004-0.59727 7.8206 3.8869 7.3863 7.8787-0.35426 3.2561-3.4492 5.7573-6.5925 6.0193-4.2176 0.35147-7.7596-4.1434-7.085-8.1359 0.51584-3.0526 3.3175-5.349 6.2912-5.762m53.181 1.5287 2.9104 8.4667h-5.8208c0.25975-2.3777 1.4872-6.5649 2.9104-8.4667m-32.279 13.494v-5.8208c1.3641 0 3.235-0.3318 4.4979 0.24254 2.056 0.93499 2.1679 3.9682 0.26458 5.1447-1.2874 0.79579-3.313 0.43362-4.7625 0.43362z" fill="#b62f37"/><path d="m11.023 15.578v5.2917h7.6729v22.225h5.8208v-16.14c0-1.2966-0.60793-4.7719 0.35278-5.7326 1.1308-1.1308 5.7589-0.35279 7.3201-0.35279v-5.2917h-21.167m29.898 0v13.758c0 2.9577-0.23538 5.9968 1.1318 8.7312 3.2282 6.4564 15.634 7.0076 19.403 0.79375 1.8326-3.0218 1.6904-6.3911 1.6904-9.7896v-13.494h-5.8208v12.171c0 2.0904 0.27062 4.6422-0.55122 6.6146-1.3349 3.2037-6.3772 3.8051-8.6871 1.3156-1.5228-1.6412-1.345-4.2679-1.345-6.3427v-13.758h-5.8208m33.073 0v27.517h5.8208v-9.7896l4.6743 6.8792 1.9623 2.7193 7.3863 0.19109-7.4083-10.319c6.7006-1.4077 7.696-11.273 2.9104-15.287-3.8421-3.2227-10.672-1.9109-15.346-1.9109m28.575 0v27.517c4.7027 0 12.49 1.4833 16.404-1.6536 4.2014-3.367 3.4196-12.159-2.6458-12.898 3.7038-3.3148 4.4591-10.11-1.0583-12.333-3.6916-1.4869-8.7854-0.63207-12.7-0.63207m39.952 0.1029c-6.9092 1.1515-11.906 6.3162-12.413 13.391-0.56416 7.8616 7.6816 15.043 15.324 13.964 6.3589-0.89789 11.762-5.8341 12.413-12.377 0.81525-8.1903-6.9044-16.382-15.324-14.978m-62.706 4.6596c1.3545 0 3.2138-0.33141 4.4979 0.13229 3.9292 1.4189 2.7322 7.4407-1.0583 8.011-0.74086 0.11147-2.7372 0.38544-3.2485-0.29397-0.40265-0.53501-0.19109-1.664-0.19109-2.2931v-5.5562m28.575 0c0.99726 0 2.2096-0.18794 3.175 0.08084 2.991 0.83278 2.6398 5.2696 0 6.2618-0.69729 0.2621-2.4425 0.63858-2.9839-0.08084-0.85979-1.1424-0.19109-4.8404-0.19109-6.2618m34.925 1.1171c4.5204-0.65925 9.1578 3.9019 8.7092 8.4079-0.39684 3.9867-3.7804 6.9105-7.6509 7.3495-5.0617 0.57412-9.1737-5.0573-8.0918-9.7308 0.7456-3.2209 3.875-5.566 7.0335-6.0266m-34.925 10.26c1.3899 0 2.8518-0.13146 4.2333 0.02205 2.5516 0.28351 3.8486 3.4809 2.2563 5.5121-0.89079 1.1364-2.4946 1.3325-3.8438 1.345-0.65709 0.0061-2.0009 0.25024-2.4548-0.35277-0.88894-1.1811-0.19109-5.0541-0.19109-6.5264z" fill="#0d3e5c"/></svg>
